<?xml version="1.0" encoding="UTF-8"?>
<svg version="1.1" xmlns="http://www.w3.org/2000/svg" width="2000" height="2266">
<path d="M0 0 C647.46 0 1294.92 0 1962 0 C1960.87471221 10.12759013 1960.87471221 10.12759013 1959.7668457 14.8515625 C1959.51668701 15.92867996 1959.26652832 17.00579742 1959.00878906 18.11555481 C1958.73389648 19.27367172 1958.45900391 20.43178864 1958.17578125 21.625 C1957.88243896 22.87766159 1957.58909668 24.13032318 1957.28686523 25.42094421 C1956.47488717 28.88401275 1955.65521113 32.34521512 1954.83328629 35.80593491 C1954.30706781 38.02288573 1953.78253316 40.24022924 1953.25839233 42.45767212 C1937.07973737 110.86496742 1919.8962692 179.02310767 1902 247 C1901.79087479 247.7946743 1901.58174957 248.5893486 1901.36628723 249.40810394 C1888.30225121 299.04673596 1874.81572454 348.56544089 1861 398 C1860.81202095 398.6727446 1860.6240419 399.3454892 1860.43036652 400.03862 C1841.92257676 466.26108545 1822.67382081 532.28110893 1802.59680939 598.04485321 C1801.99133791 600.02837699 1801.3862288 602.01201102 1800.78118896 603.9956665 C1776.79895854 682.61056708 1751.88276507 760.94604638 1707.78083801 891.07015991 C1705.49428471 897.57036083 1703.24155136 904.08181349 1701 910.59765625 C1691.1260678 939.27959947 1680.89257773 967.81834026 1670.45361328 996.29931641 C1668.47966373 1001.68614667 1666.5143656 1007.07607245 1664.55284119 1012.46743774 C1639.65836403 1080.87388111 1639.65836403 1080.87388111 1628.90905762 1106.61216736 C1626.54332636 1112.82626228 1628.81031098 1117.89069302 1631.15625 1123.69921875 C1631.48969925 1124.54928497 1631.8231485 1125.3993512 1632.16670227 1126.275177 C1632.88962935 1128.1157682 1633.61699633 1129.95462039 1634.34829712 1131.79190063 C1636.3311138 1136.77707764 1638.27790352 1141.77635312 1640.23046875 1146.7734375 C1640.63271164 1147.8002211 1641.03495453 1148.8270047 1641.4493866 1149.88490295 C1645.33775443 1159.82364848 1649.10105166 1169.8065176 1652.8125 1179.8125 C1653.13283203 1180.6755777 1653.45316406 1181.5386554 1653.78320312 1182.42788696 C1686.43086548 1270.47576835 1717.32936716 1359.14576336 1777.33349609 1543.86055756 C1778.03693496 1546.11855927 1778.74104354 1548.37635129 1779.4453125 1550.63409424 C1794.63257508 1599.32293247 1809.6288266 1648.0634506 1824 1697 C1824.20018738 1697.68166733 1824.40037476 1698.36333466 1824.60662842 1699.06565857 C1848.29195028 1779.746676 1870.9815214 1860.72080504 1909.37592316 2005.59597778 C1910.00596384 2008.02297346 1910.6364667 2010.44984873 1911.26702881 2012.87670898 C1921.80500019 2053.44608212 1932.08335795 2094.07557396 1942.04163361 2134.79128265 C1942.50795966 2136.69789713 1942.97450162 2138.60445881 1943.44127655 2140.51096344 C1948.22806681 2160.06266239 1952.96125973 2179.62710873 1957.5331192 2199.2303257 C1957.93402552 2200.94724789 1958.33665383 2202.66376901 1958.74111176 2204.37985802 C1959.29683994 2206.74132323 1959.8452791 2209.1043612 1960.39160156 2211.46801758 C1960.55588402 2212.1608037 1960.72016647 2212.85358982 1960.88942719 2213.56736946 C1961.72592828 2217.22800214 1962 2220.18257358 1962 2224 C1314.54 2224 667.08 2224 0 2224 C1.12533084 2213.87202243 1.12533084 2213.87202243 2.20141602 2209.27539062 C2.44519485 2208.22379257 2.68897369 2207.17219452 2.94013977 2206.08872986 C3.20868271 2204.95601151 3.47722565 2203.82329315 3.75390625 2202.65625 C4.04182541 2201.42528091 4.32974457 2200.19431183 4.62638855 2198.92604065 C5.42728207 2195.50675993 6.23604 2192.08938545 7.04710388 2188.67250443 C7.56793193 2186.47710327 8.08706576 2184.28130719 8.60583496 2182.0854187 C24.95958616 2112.90859706 42.25266022 2043.95104198 60.41172028 1975.22665405 C60.99624026 1973.01423072 61.58028608 1970.80168265 62.16424561 1968.58911133 C80.66313698 1898.51838741 99.8150862 1828.60436011 120 1759 C120.40087337 1757.61648561 120.80171029 1756.23296066 121.20251465 1754.84942627 C132.60123123 1715.50623462 144.10202903 1676.19560159 156 1637 C156.4367807 1635.55974457 156.4367807 1635.55974457 156.88238525 1634.09039307 C179.93808062 1558.07857293 204.12737308 1482.43532961 229 1407 C229.50820282 1405.45735474 229.50820282 1405.45735474 230.02667236 1403.88354492 C238.14622726 1379.23836758 246.52702582 1354.69520319 255.12481689 1330.21286011 C257.36948651 1323.81518729 259.5906759 1317.40968731 261.80078125 1311 C271.41231776 1283.14783735 281.3884939 1255.43747434 291.52148438 1227.77099609 C293.52049948 1222.31272497 295.51301806 1216.85211499 297.50305176 1211.39056396 C306.87325106 1185.68259417 316.47125423 1160.0696342 326.3046875 1134.53515625 C326.62056824 1133.7144313 326.93644897 1132.89370636 327.26190186 1132.04811096 C327.56460999 1131.26403366 327.86731812 1130.47995636 328.17919922 1129.67211914 C328.47227966 1128.90860138 328.76536011 1128.14508362 329.06732178 1127.35842896 C329.7255418 1125.69401231 330.41216441 1124.04069289 331.11871338 1122.39620972 C335.08865869 1113.05475826 333.91101631 1107.89301131 330.22265625 1098.65625 C329.62622566 1097.12581055 329.62622566 1097.12581055 329.01774597 1095.56445312 C328.15779237 1093.360077 327.29343577 1091.15741455 326.4251709 1088.95629883 C324.10156246 1083.06266366 321.81272193 1077.1555215 319.51953125 1071.25 C318.81816544 1069.44746765 318.81816544 1069.44746765 318.10263062 1067.60852051 C313.70228035 1056.28145401 309.44513927 1044.9044457 305.25 1033.5 C304.90495422 1032.56261993 304.55990845 1031.62523987 304.20440674 1030.65945435 C302.13532486 1025.03460218 300.07338276 1019.40716343 298.01568604 1013.77813721 C297.00143982 1011.00393824 295.98593724 1008.23020176 294.97021484 1005.45654297 C263.48968288 919.45387949 233.83590169 832.79762036 184.66650391 680.13944244 C183.96306504 677.88144073 183.25895646 675.62364871 182.5546875 673.36590576 C157.70164568 593.68958708 133.88276773 513.7475158 52.59823608 218.30265045 C51.99909604 215.99652058 51.39959346 213.69048517 50.80004883 211.38446045 C35.33960659 151.90336622 20.3126902 92.30624949 6.27557755 32.47173309 C5.81655104 30.51724887 5.35559543 28.56321804 4.8946228 26.60919189 C4.054989 23.0429726 3.22322898 19.47502427 2.39453125 15.90625 C2.14869293 14.86435516 1.90285461 13.82246033 1.64956665 12.74899292 C1.42981171 11.79348541 1.21005676 10.83797791 0.98364258 9.85351562 C0.79224197 9.0309729 0.60084137 8.20843018 0.40364075 7.36096191 C0 5 0 5 0 0 Z " fill="#FEFEFE" transform="translate(19,21)"/>
<path d="M0 0 C647.46 0 1294.92 0 1962 0 C1960.87471221 10.12759013 1960.87471221 10.12759013 1959.7668457 14.8515625 C1959.51668701 15.92867996 1959.26652832 17.00579742 1959.00878906 18.11555481 C1958.73389648 19.27367172 1958.45900391 20.43178864 1958.17578125 21.625 C1957.88243896 22.87766159 1957.58909668 24.13032318 1957.28686523 25.42094421 C1956.47488717 28.88401275 1955.65521113 32.34521512 1954.83328629 35.80593491 C1954.30706781 38.02288573 1953.78253316 40.24022924 1953.25839233 42.45767212 C1937.07973737 110.86496742 1919.8962692 179.02310767 1902 247 C1901.79087479 247.7946743 1901.58174957 248.5893486 1901.36628723 249.40810394 C1888.30225121 299.04673596 1874.81572454 348.56544089 1861 398 C1860.81202095 398.6727446 1860.6240419 399.3454892 1860.43036652 400.03862 C1841.92257676 466.26108545 1822.67382081 532.28110893 1802.59680939 598.04485321 C1801.99133791 600.02837699 1801.3862288 602.01201102 1800.78118896 603.9956665 C1776.79895854 682.61056708 1751.88276507 760.94604638 1707.78083801 891.07015991 C1705.49428471 897.57036083 1703.24155136 904.08181349 1701 910.59765625 C1691.1260678 939.27959947 1680.89257773 967.81834026 1670.45361328 996.29931641 C1668.4796582 1001.68616177 1666.5143537 1007.07610233 1664.55282593 1012.46748352 C1654.32475786 1040.57270859 1643.74603063 1068.53208924 1632.92970276 1096.41622925 C1630.92049585 1101.59906879 1628.94133137 1106.79133691 1627 1112 C1624.07061355 1110.53530677 1623.9160185 1108.64009391 1622.77734375 1105.59765625 C1622.3302002 1104.41905029 1621.88305664 1103.24044434 1621.42236328 1102.02612305 C1621.06177826 1101.06287613 1621.06177826 1101.06287613 1620.69390869 1100.08016968 C1619.37217206 1096.55452547 1618.0236927 1093.0391412 1616.67578125 1089.5234375 C1616.23996735 1088.38538918 1616.23996735 1088.38538918 1615.79534912 1087.22434998 C1612.1863659 1077.83283832 1608.40921582 1068.50947608 1604.625 1059.1875 C1604.26237061 1058.29390778 1603.89974121 1057.40031555 1603.52612305 1056.47964478 C1601.0238965 1050.31711523 1598.51401013 1044.15773081 1596 1038 C1595.52823334 1036.8441037 1595.52823334 1036.8441037 1595.04693604 1035.66485596 C1581.9811428 1003.66363543 1568.63393832 971.77608826 1554.79150391 940.10253906 C1553.5172822 937.1865471 1552.24666398 934.26901205 1550.97802734 931.35058594 C1540.6399335 907.5732073 1530.0232188 883.9429434 1519.06933594 860.44287109 C1517.44272456 856.95294912 1515.82256116 853.46010388 1514.20606995 849.96548462 C1506.29804102 832.87104223 1498.15072289 815.90141419 1489.89974976 798.97042847 C1487.73137068 794.51622962 1485.5830118 790.05289328 1483.44921875 785.58203125 C1478.36157336 774.92929019 1473.23018537 764.33067974 1467.66210938 753.91967773 C1464.53429071 748.06386052 1461.56565119 742.13920279 1458.625 736.1875 C1454.54275466 727.95491216 1450.26603749 719.85474404 1445.828125 711.80883789 C1442.8981121 706.49259789 1440.00991155 701.15703904 1437.17578125 695.7890625 C1430.40041685 682.96317479 1423.52768816 670.24697066 1416.14233398 657.75732422 C1412.04012238 650.81672834 1408.08975568 643.80465312 1404.1875 636.75 C1396.51120846 622.92832914 1388.28610289 609.46084741 1380 596 C1378.86446757 594.14720636 1377.72904267 592.29434681 1376.59375 590.44140625 C1342.06704029 534.23304394 1304.23879817 479.94014975 1261.43701172 429.69140625 C1260.00600998 428.00707393 1258.58262965 426.3165372 1257.16015625 424.625 C1250.00821975 416.15588798 1242.51748301 408.05150226 1234.89355469 400.00683594 C1232.41998412 397.38528487 1229.97100246 394.74141555 1227.52148438 392.09741211 C1219.44293908 383.3875913 1211.33290169 374.7161621 1202.28125 367 C1199.80732751 364.83108165 1197.41116879 362.59172871 1195.01342773 360.33935547 C1189.47457811 355.13895407 1183.88041361 350.10148773 1177.94140625 345.35546875 C1175.76042209 343.60894358 1173.60693061 341.84377033 1171.46484375 340.05078125 C1121.6701929 298.57430268 1058.05524535 264.37971954 992 262 C990.89108398 261.95915283 990.89108398 261.95915283 989.75976562 261.91748047 C948.67561002 260.62240102 908.88486418 270.17815018 872 288 C871.28908203 288.3403125 870.57816406 288.680625 869.84570312 289.03125 C865.18609827 291.2713605 860.58091661 293.60346355 856 296 C855.40429199 296.30776367 854.80858398 296.61552734 854.19482422 296.93261719 C824.52752268 312.40066816 796.72940801 333.49695385 772.1328125 356.05078125 C770.05710952 357.9478065 767.94311316 359.7900803 765.8125 361.625 C762.64609788 364.37894493 759.69359764 367.28504043 756.75390625 370.27734375 C755.0411016 371.95963073 753.26892555 373.51103759 751.4375 375.0625 C747.43321195 378.51932679 743.6821342 382.20472686 739.9375 385.9375 C739.35991943 386.51056885 738.78233887 387.0836377 738.18725586 387.67407227 C734.55726061 391.31641619 731.13744939 395.09092871 727.7746582 398.98022461 C724.81790892 402.34536243 721.71264339 405.56795277 718.625 408.8125 C713.51903762 414.21431485 708.66266152 419.68871977 704.03125 425.50390625 C701.97783831 428.02723331 699.82811943 430.41932273 697.625 432.8125 C693.64316413 437.18700826 689.98257917 441.74529075 686.36108398 446.41650391 C683.39961577 450.23305469 680.38052298 453.99192182 677.30786133 457.71948242 C670.13334396 466.4333267 663.41654848 475.43633885 656.77929688 484.56347656 C654.99488063 487.00701034 653.19557884 489.43879284 651.390625 491.8671875 C650.79113037 492.67502686 650.19163574 493.48286621 649.57397461 494.31518555 C648.46199594 495.81277346 647.34843723 497.30919064 646.23266602 498.80395508 C636.05426272 512.55301422 626.66918142 526.89235139 617.1875 541.125 C616.61629425 541.98227692 616.0450885 542.83955383 615.45657349 543.72280884 C591.55503731 579.61748357 569.22531454 616.4612322 548 654 C547.45230957 654.96776367 546.90461914 655.93552734 546.34033203 656.93261719 C538.5149144 670.77947601 530.87489611 684.71680976 523.3671875 698.73828125 C521.2506885 702.68694638 519.11391976 706.62268556 516.9453125 710.54296875 C510.69936601 721.84005667 504.7930879 733.27720488 499.0637207 744.84301758 C495.86118636 751.30151336 492.59860816 757.71206371 489.1875 764.0625 C482.470643 776.6364223 476.38575893 789.53627938 470.19737244 802.37550354 C467.91727692 807.1053416 465.62432975 811.82864975 463.3203125 816.546875 C455.48473235 832.62377892 448.01030966 848.84042905 440.65486145 865.14060974 C437.83378149 871.38464861 434.95059488 877.59921179 432.0625 883.8125 C420.56034994 908.63591782 409.57202895 933.69979882 398.89593506 958.88842773 C397.91882259 961.19132186 396.93931937 963.49318984 395.95947266 965.79492188 C378.77187469 1006.18101284 362.13514577 1046.78030825 346.08984375 1087.6340332 C345.71001343 1088.59940506 345.33018311 1089.56477692 344.93884277 1090.55940247 C344.23727069 1092.34319701 343.53733049 1094.12763476 342.83947754 1095.91288757 C340.70316268 1101.34320925 338.41277806 1106.68679281 336 1112 C334.30318807 1109.45478211 333.29000927 1107.43037805 332.20678711 1104.6159668 C331.86072922 1103.72177536 331.51467133 1102.82758392 331.15812683 1101.90629578 C330.78496841 1100.93046036 330.41181 1099.95462494 330.02734375 1098.94921875 C329.63255325 1097.92468094 329.23776276 1096.90014313 328.83100891 1095.84455872 C327.52888327 1092.46050258 326.23281338 1089.07416904 324.9375 1085.6875 C324.49104126 1084.52331543 324.04458252 1083.35913086 323.58459473 1082.15966797 C314.8714456 1059.43538963 306.37140652 1036.63600991 298.01568604 1013.77813721 C297.00143982 1011.00393824 295.98593724 1008.23020176 294.97021484 1005.45654297 C263.48968288 919.45387949 233.83590169 832.79762036 184.66650391 680.13944244 C183.96306504 677.88144073 183.25895646 675.62364871 182.5546875 673.36590576 C157.70164568 593.68958708 133.88276773 513.7475158 52.59823608 218.30265045 C51.99909604 215.99652058 51.39959346 213.69048517 50.80004883 211.38446045 C35.33960659 151.90336622 20.3126902 92.30624949 6.27557755 32.47173309 C5.81655104 30.51724887 5.35559543 28.56321804 4.8946228 26.60919189 C4.054989 23.0429726 3.22322898 19.47502427 2.39453125 15.90625 C2.14869293 14.86435516 1.90285461 13.82246033 1.64956665 12.74899292 C1.42981171 11.79348541 1.21005676 10.83797791 0.98364258 9.85351562 C0.79224197 9.0309729 0.60084137 8.20843018 0.40364075 7.36096191 C0 5 0 5 0 0 Z " fill="#FEFEFF" transform="translate(19,21)"/>
<path d="M0 0 C1.65 0 3.3 0 5 0 C7.53996808 6.41877475 9.44074422 12.90474933 11.25 19.5625 C13.56781576 27.97735396 15.98388052 36.34891254 18.5625 44.6875 C21.63064486 54.650096 24.42191153 64.66797191 27.11962891 74.73632812 C28.13467697 78.49926837 29.16581753 82.25769591 30.19921875 86.015625 C37.28192054 111.79465259 37.28192054 111.79465259 40.24627686 123.977005 C41.49732013 129.08072225 42.86481159 134.13824306 44.3046875 139.19140625 C47.26429628 149.7295606 49.84027026 160.35293631 52.375 171 C52.61400024 172.00001038 52.85300049 173.00002075 53.09924316 174.03033447 C56.99126834 190.3440128 60.52034245 206.7033477 63.80831909 223.14759827 C65.18958842 230.01657185 66.72284969 236.84983927 68.25 243.6875 C75.56745324 276.73100099 81.9711806 309.98740477 88.08178711 343.27294922 C90.27545392 355.20721888 92.57323963 367.11807421 94.92440796 379.02227783 C99.09247019 400.13241583 103.03350789 421.27556459 106.82666016 442.45605469 C107.67729602 447.20468145 108.53161661 451.95263534 109.38818359 456.70019531 C114.56371769 485.38743069 119.72882618 514.07599279 124.625 542.8125 C124.86839111 544.23690903 124.86839111 544.23690903 125.11669922 545.69009399 C126.71279204 555.04788818 128.24268657 564.40328588 129.54833984 573.80688477 C130.2928496 579.0703675 131.14823414 584.3154892 132 589.5625 C133.84300484 600.95889318 135.65381205 612.35466334 137.21875 623.79296875 C137.37573364 624.94026207 137.37573364 624.94026207 137.53588867 626.11073303 C137.96680106 629.26651198 138.39673868 632.42241328 138.82275391 635.57885742 C139.88357384 643.4255445 140.94342386 651.22885358 142.58886719 658.97875977 C143.18856099 661.9270169 143.53682344 664.88662348 143.875 667.875 C144.60033639 674.04789917 145.45715773 680.1942355 146.36401367 686.34301758 C148.46967778 700.64000402 150.21011507 714.95033386 151.70907593 729.32246399 C152.45276635 735.94029271 153.37527552 742.46943096 154.56420898 749.02075195 C154.70265984 749.79398048 154.84111069 750.56720901 154.98375702 751.36386871 C155.3205067 753.2429383 155.65996388 755.12152235 156 757 C160.34393541 748.35922805 164.68308849 739.71607424 169.01674175 731.07014084 C171.03086631 727.05216846 173.04641272 723.034925 175.06567383 719.01953125 C184.58247451 700.09200606 193.88698493 681.10840389 202.69692993 661.84014893 C204.4697863 657.97606193 206.27666765 654.12859863 208.09375 650.28515625 C216.27298433 632.94877606 224.25046262 615.53347378 232 598 C232.33429016 597.24398499 232.66858032 596.48796997 233.01300049 595.70904541 C243.51317642 571.95432145 253.90052965 548.1525209 264.04656982 524.2442627 C265.00048278 521.9988636 265.95721304 519.754683 266.91455078 517.51074219 C281.52960512 483.22384945 295.25675631 448.57578192 309.03713512 413.94748306 C309.57228055 412.60397327 310.10829839 411.2608106 310.64526081 409.91802597 C312.00556498 406.51411269 313.34894321 403.10478755 314.66809082 399.68469238 C315.07467611 398.64097662 315.07467611 398.64097662 315.48947525 397.57617569 C316.00619817 396.24900229 316.51754675 394.91972002 317.02270126 393.58810043 C318.77483237 389.11258381 318.77483237 389.11258381 321 388 C356.96014355 481.39718148 390.77465065 575.57150635 471.33349609 819.86055756 C472.03693496 822.11855927 472.74104354 824.37635129 473.4453125 826.63409424 C488.63257508 875.32293247 503.6288266 924.0634506 518 973 C518.20018738 973.68166733 518.40037476 974.36333466 518.60662842 975.06565857 C542.29195028 1055.746676 564.9815214 1136.72080504 603.37592316 1281.59597778 C604.00596384 1284.02297346 604.6364667 1286.44984873 605.26702881 1288.87670898 C615.80500019 1329.44608212 626.08335795 1370.07557396 636.04163361 1410.79128265 C636.50795966 1412.69789713 636.97450162 1414.60445881 637.44127655 1416.51096344 C642.22806681 1436.06266239 646.96125973 1455.62710873 651.5331192 1475.2303257 C651.93402552 1476.94724789 652.33665383 1478.66376901 652.74111176 1480.37985802 C653.29683994 1482.74132323 653.8452791 1485.1043612 654.39160156 1487.46801758 C654.55588402 1488.1608037 654.72016647 1488.85358982 654.88942719 1489.56736946 C655.72592828 1493.22800214 656 1496.18257358 656 1500 C8.54 1500 -638.92 1500 -1306 1500 C-1304.87466916 1489.87202243 -1304.87466916 1489.87202243 -1303.79858398 1485.27539062 C-1303.55480515 1484.22379257 -1303.31102631 1483.17219452 -1303.05986023 1482.08872986 C-1302.65704582 1480.38965233 -1302.65704582 1480.38965233 -1302.24609375 1478.65625 C-1301.95817459 1477.42528091 -1301.67025543 1476.19431183 -1301.37361145 1474.92604065 C-1300.57271793 1471.50675993 -1299.76396 1468.08938545 -1298.95289612 1464.67250443 C-1298.43206807 1462.47710327 -1297.91293424 1460.28130719 -1297.39416504 1458.0854187 C-1281.04041384 1388.90859706 -1263.74733978 1319.95104198 -1245.58827972 1251.22665405 C-1245.00375974 1249.01423072 -1244.41971392 1246.80168265 -1243.83575439 1244.58911133 C-1225.33686302 1174.51838741 -1206.1849138 1104.60436011 -1186 1035 C-1185.59912663 1033.61648561 -1185.19828971 1032.23296066 -1184.79748535 1030.84942627 C-1173.39876877 991.50623462 -1161.89797097 952.19560159 -1150 913 C-1149.5632193 911.55974457 -1149.5632193 911.55974457 -1149.11761475 910.09039307 C-1126.06191938 834.07857293 -1101.87262692 758.43532961 -1077 683 C-1076.66119812 681.97156982 -1076.32239624 680.94313965 -1075.97332764 679.88354492 C-1067.85377274 655.23836758 -1059.47297418 630.69520319 -1050.87518311 606.21286011 C-1048.63051349 599.81518729 -1046.4093241 593.40968731 -1044.19921875 587 C-1034.58768224 559.14783735 -1024.6115061 531.43747434 -1014.47851562 503.77099609 C-1012.47949499 498.31270987 -1010.48697002 492.85208511 -1008.49693298 487.39051819 C-998.23881807 459.24650871 -987.67130209 431.23098849 -976.88226318 403.28637695 C-974.91674423 398.19275261 -972.95884246 393.0961948 -971 388 C-967.73184881 390.64466994 -966.59184519 394.04448951 -965.171875 397.8671875 C-964.90643387 398.56078873 -964.64099274 399.25438995 -964.36750793 399.9690094 C-963.79148111 401.47577853 -963.21892891 402.98387952 -962.64944458 404.49313354 C-961.1005938 408.59472669 -959.52356511 412.68548411 -957.94921875 416.77734375 C-957.62344345 417.62577347 -957.29766815 418.47420319 -956.96202087 419.3483429 C-953.59877412 428.08686505 -950.09633753 436.76682318 -946.5625 445.4375 C-946.25244019 446.19865112 -945.94238037 446.95980225 -945.6229248 447.74401855 C-944.36192904 450.83904176 -943.10061364 453.93393347 -941.83798218 457.02828979 C-939.62524999 462.45410852 -937.4313905 467.88729869 -935.24609375 473.32421875 C-927.74114015 491.9809793 -920.02233124 510.52966446 -912.03277588 528.9841156 C-909.89744056 533.91711299 -907.77399049 538.85505904 -905.65789795 543.79634094 C-894.73743001 569.29532561 -883.50212012 594.63547648 -871.97467041 619.86572266 C-871.09169017 621.79922213 -870.21015497 623.73336844 -869.32958984 625.66796875 C-866.24010589 632.45480466 -863.12971538 639.23162696 -860 646 C-859.48727539 647.11036621 -858.97455078 648.22073242 -858.44628906 649.36474609 C-851.9871185 663.33550952 -845.44474123 677.26544608 -838.75 691.125 C-838.43833893 691.77186768 -838.12667786 692.41873535 -837.80557251 693.08520508 C-833.64359691 701.71019334 -829.3664708 710.27096907 -824.99932861 718.79400635 C-822.59100147 723.49584589 -820.19653345 728.20470233 -817.8013916 732.91326904 C-816.60764593 735.24870541 -815.40647082 737.58036024 -814.19763184 739.90802002 C-812.48862603 743.1992657 -810.80481274 746.50237537 -809.125 749.80859375 C-808.60705872 750.78967606 -808.08911743 751.77075836 -807.55548096 752.78157043 C-804.3540098 759.15769533 -803.30937444 763.91621171 -804 771 C-804.07213715 771.90186539 -804.14427429 772.80373077 -804.21859741 773.73292542 C-804.48499953 776.76600273 -804.80553565 779.78973702 -805.13671875 782.81640625 C-805.38482088 785.18176348 -805.63252335 787.54716265 -805.87988281 789.91259766 C-806.0774115 791.77890839 -806.0774115 791.77890839 -806.27893066 793.68292236 C-808.78413758 817.47116063 -810.94076994 841.27390748 -812.75 865.125 C-812.8023518 865.81376976 -812.8547036 866.50253952 -812.90864182 867.21218109 C-814.26033267 885.02819158 -815.54893763 902.84885801 -816.45605469 920.69384766 C-816.51696289 921.87124512 -816.57787109 923.04864258 -816.640625 924.26171875 C-816.68735352 925.24100342 -816.73408203 926.22028809 -816.78222656 927.22924805 C-817.01350323 930.17180291 -817.51475506 933.08853038 -818 936 C-676.1 935.67 -534.2 935.34 -388 935 C-387.34 920.81 -386.68 906.62 -386 892 C-385.00390625 877.6640625 -385.00390625 877.6640625 -384.50439453 871.08691406 C-383.87708135 862.59295639 -383.42161513 854.09042743 -382.96484375 845.5859375 C-382.90110502 844.4054974 -382.90110502 844.4054974 -382.83607864 843.20121002 C-382.443497 835.9259296 -382.05696718 828.6503337 -381.67456055 821.37451172 C-381.46200371 817.33499583 -381.2451928 813.29572654 -381.02572823 809.25658035 C-380.94391471 807.73439032 -380.86378112 806.212109 -380.78538322 804.68973923 C-380.67723536 802.5902872 -380.56372669 800.4911897 -380.44897461 798.39208984 C-380.38616806 797.20191254 -380.32336151 796.01173523 -380.25865173 794.78549194 C-380 792 -380 792 -379 790 C-351.94 790 -324.88 790 -297 790 C-297 792.31 -297 794.62 -297 797 C-321.75 797 -346.5 797 -372 797 C-372 802.94 -372 808.88 -372 815 C-372.23726569 818.81139569 -372.51349466 822.57836407 -372.875 826.375 C-373.86403261 837.97094749 -374.43993946 849.562053 -374.9375 861.1875 C-375.65865614 877.88750855 -376.46503949 894.58132587 -377.36257935 911.27285767 C-377.49546705 913.75029749 -377.62688456 916.22781663 -377.75680542 918.70541382 C-377.93934284 922.17883759 -378.12708989 925.65193993 -378.31640625 929.125 C-378.39757187 930.68913383 -378.39757187 930.68913383 -378.4803772 932.28486633 C-378.56078751 933.72553719 -378.56078751 933.72553719 -378.64282227 935.1953125 C-378.71038475 936.44852295 -378.71038475 936.44852295 -378.77931213 937.72705078 C-379 940 -379 940 -380 944 C-484.94 944.33 -589.88 944.66 -698 945 C-677.73703367 975.3944495 -657.32401739 1005.15638763 -635 1034 C-634.30293945 1034.90177979 -634.30293945 1034.90177979 -633.59179688 1035.82177734 C-619.59337271 1053.89384365 -604.99606979 1071.53939029 -589.46484375 1088.31640625 C-587.35183852 1090.6169365 -585.28894966 1092.94659183 -583.25 1095.3125 C-580.54348788 1098.4378771 -577.67866397 1101.34215129 -574.73046875 1104.23828125 C-573.00548519 1105.99441576 -571.40817536 1107.81364395 -569.8125 1109.6875 C-563.07170104 1117.49103754 -555.64045115 1124.74328593 -547.79296875 1131.42578125 C-545.94570371 1133.0476719 -544.22243286 1134.74660205 -542.5 1136.5 C-538.83714159 1140.21213453 -534.96375633 1143.6138765 -531 1147 C-530.07574219 1147.80179688 -529.15148437 1148.60359375 -528.19921875 1149.4296875 C-519.41917958 1157.00100235 -510.27217956 1164.04478465 -501 1171 C-500.35772461 1171.48500977 -499.71544922 1171.97001953 -499.05371094 1172.46972656 C-484.06988937 1183.76810583 -468.29629151 1193.71067415 -452 1203 C-451.41138184 1203.34095703 -450.82276367 1203.68191406 -450.21630859 1204.03320312 C-423.19167628 1219.60855695 -392.80887722 1229.75816038 -362.1875 1235.1875 C-361.24471191 1235.35467529 -360.30192383 1235.52185059 -359.33056641 1235.6940918 C-335.66277944 1239.71749121 -311.62586969 1238.82711456 -288 1235 C-286.69804688 1234.79503906 -285.39609375 1234.59007812 -284.0546875 1234.37890625 C-259.10024718 1229.88487393 -234.6346227 1221.35863426 -212 1210 C-211.15211914 1209.57734863 -210.30423828 1209.15469727 -209.43066406 1208.71923828 C-175.05196998 1191.48189306 -143.8966642 1169.15351062 -115.51171875 1143.265625 C-113.43656621 1141.39379223 -111.34049646 1139.5547085 -109.23046875 1137.72265625 C-104.93700376 1133.97295332 -100.76898397 1130.10110463 -96.625 1126.1875 C-95.88330566 1125.48753906 -95.14161133 1124.78757812 -94.37744141 1124.06640625 C-86.83311088 1116.92555989 -79.40477617 1109.76342696 -72.64453125 1101.86328125 C-70.99601248 1099.99548207 -69.27696419 1098.24544376 -67.5 1096.5 C-64.46405075 1093.51127663 -61.65491341 1090.38293521 -58.875 1087.15625 C-56.82640906 1084.80037042 -54.72796998 1082.4949254 -52.625 1080.1875 C-48.73075382 1075.87225424 -45.03345276 1071.42908245 -41.37890625 1066.91015625 C-39.2705982 1064.33102735 -37.12696283 1061.79076998 -34.96118164 1059.26025391 C-30.02973508 1053.49470511 -25.30729918 1047.60649915 -20.71875 1041.5625 C-18.74207957 1038.96037564 -16.73785055 1036.38184042 -14.71875 1033.8125 C-7.10150198 1024.1140425 0.24205256 1014.26208824 7.40429688 1004.22363281 C8.96951686 1002.04247865 10.5516128 999.87480405 12.140625 997.7109375 C20.36662498 986.48500147 28.1152688 974.96994719 35.77999878 963.35508728 C38.25973047 959.60289557 40.75528088 955.86129482 43.2512207 952.11987305 C43.71003883 951.43188377 44.16885696 950.7438945 44.64157867 950.03505707 C45.76094017 948.35662983 46.88045421 946.67830432 48 945 C47.30634167 944.99826375 46.61268335 944.9965275 45.89800507 944.99473864 C4.83041427 944.89181894 -36.23716007 944.78373001 -77.30471933 944.66888306 C-82.23040848 944.65511268 -87.15609776 944.6413857 -92.08178711 944.62768555 C-93.06244644 944.62495724 -94.04310578 944.62222894 -95.05348206 944.61941796 C-110.95398849 944.57528459 -126.85450207 944.53467111 -142.75502103 944.49534739 C-159.05772575 944.45495108 -175.36041714 944.41079786 -191.66310221 944.36312145 C-201.73119209 944.3337973 -211.79928092 944.30744035 -221.86738814 944.28482103 C-228.76166696 944.26905204 -235.65592944 944.24964991 -242.55019014 944.22733159 C-246.53401243 944.21454417 -250.51782206 944.20341521 -254.50165939 944.19658089 C-258.14274962 944.19029939 -261.78379629 944.17949669 -265.42486269 944.1649667 C-267.3786124 944.15838344 -269.33237682 944.15675522 -271.28613704 944.15525442 C-273.00295424 944.14704276 -273.00295424 944.14704276 -274.75445461 944.1386652 C-275.75046104 944.13600716 -276.74646747 944.13334911 -277.7726559 944.13061053 C-280 944 -280 944 -281 943 C-281 940.69 -281 938.38 -281 936 C-133.82 936 13.36 936 165 936 C159.42304927 870.67000569 153.55147283 805.45130483 145.6875 740.375 C145.56273222 739.33981735 145.56273222 739.33981735 145.43544388 738.28372192 C143.0116786 718.13436587 143.0116786 718.13436587 139.97221375 698.07089233 C139.01105314 692.32366416 138.32496656 686.56205662 137.73579407 680.76553345 C136.43881343 668.12763863 134.52962109 655.55349021 132.671875 642.98828125 C132.56126425 642.23873358 132.4506535 641.48918591 132.3366909 640.71692467 C118.16390617 544.73826991 101.14522478 449.30508836 2.89379883 12.7043457 C2.69021255 12.03916428 2.48662628 11.37398285 2.27687073 10.68864441 C1.75335121 8.98386792 1.22321615 7.28112658 0.69238281 5.57861328 C0 3 0 3 0 0 Z " fill="#0078FE" transform="translate(1325,745)"/>
<path d="M0 0 C0.70866211 0.33354492 1.41732422 0.66708984 2.14746094 1.01074219 C6.82250458 3.2343195 11.41932361 5.5890578 16 8 C16.6590332 8.34015137 17.31806641 8.68030273 17.99707031 9.03076172 C28.3681895 14.40975682 38.16133057 20.58939314 47.875 27.0625 C48.72114365 27.62514557 48.72114365 27.62514557 49.5843811 28.19915771 C61.15817446 35.91726968 72.20201357 44.23298281 83 53 C83.88429688 53.70898438 84.76859375 54.41796875 85.6796875 55.1484375 C91.36136237 59.73562542 96.83534029 64.49018994 102.19921875 69.4453125 C104.3929497 71.44628885 106.6072238 73.40782318 108.84765625 75.35546875 C112.89339725 78.88484356 116.83768452 82.51123484 120.75 86.1875 C121.43956787 86.83533447 122.12913574 87.48316895 122.83959961 88.15063477 C131.02116972 95.86825749 139.12719008 103.63604646 146.42578125 112.20703125 C148.0476719 114.05429629 149.74660205 115.77756714 151.5 117.5 C154.53594925 120.48872337 157.34508659 123.61706479 160.125 126.84375 C162.17359094 129.19962958 164.27203002 131.5050746 166.375 133.8125 C170.27363397 138.13260791 173.97503858 142.58071381 177.6328125 147.10546875 C179.68377296 149.61332635 181.77396803 152.08061436 183.88647461 154.53662109 C189.73015576 161.34396032 195.19965577 168.39474692 200.61328125 175.546875 C203.44993684 179.29175442 206.33574164 182.99528837 209.23706055 186.69018555 C216.18758159 195.55039137 222.88299525 204.56477549 229.40087891 213.74755859 C230.43418433 215.20302056 231.47013623 216.65660889 232.50927734 218.10791016 C283.34674295 289.13497049 327.42231305 365.20098908 374.10975647 455.39044189 C376.43144888 459.90372336 378.76975035 464.40818244 381.11328125 468.91015625 C387.97273068 482.09937841 394.70164127 495.32496686 401.04296875 508.7734375 C403.29793459 513.54838091 405.60211457 518.29733434 407.92578125 523.0390625 C416.70505909 540.96577122 425.17864334 558.99655984 433.37168884 577.19824219 C435.78329642 582.54527039 438.25900449 587.86082895 440.75097656 593.17089844 C453.69463611 620.76623015 465.66542036 648.8068985 477.6875 676.8125 C478.09500488 677.76063568 478.50250977 678.70877136 478.92236328 679.68563843 C492.27370397 710.7720145 505.11850941 742.05468955 517.64538574 773.48132324 C518.97245092 776.80866011 520.30219099 780.13492516 521.6319828 783.46117306 C523.24793014 787.50362915 524.86228085 791.54672227 526.4765625 795.58984375 C526.77270069 796.33112959 527.06883888 797.07241543 527.37395096 797.83616447 C528.75137209 801.28539832 530.12486263 804.73605325 531.48829651 808.19084167 C532.48708397 810.72058403 533.50762142 813.23986904 534.54478455 815.75410461 C535.01155106 816.90871689 535.47831757 818.06332916 535.95922852 819.25292969 C536.37398941 820.26079529 536.78875031 821.26866089 537.21607971 822.30706787 C538.56362128 826.9361584 537.01958129 829.82828438 535 834 C534.12617612 836.28016139 533.2670884 838.56599284 532.41796875 840.85546875 C531.35035666 843.63639625 530.26873796 846.41184573 529.1875 849.1875 C528.8929895 849.94465302 528.598479 850.70180603 528.29504395 851.48190308 C509.71361517 899.17803005 490.08507398 946.52189315 469.56542969 993.41748047 C468.23255673 996.46778891 466.905156 999.52034762 465.58097839 1002.57443237 C437.05366563 1068.35853088 406.17794942 1132.93462171 374 1197 C373.67 1197 373.34 1197 373 1197 C370.28002368 1178.61497487 367.72331722 1160.23263451 365.62860107 1141.76519775 C364.6443499 1133.11396674 363.54742439 1124.51768772 362.00561523 1115.9465332 C360.97759505 1110.16844881 360.30290884 1104.37547918 359.73388672 1098.53515625 C359.21638941 1093.37731074 358.407151 1088.29935454 357.53295898 1083.19042969 C356.6231387 1077.74401126 355.85388038 1072.27714844 355.0625 1066.8125 C353.9540675 1059.23022396 352.82004787 1051.66247357 351.4375 1044.125 C350.18622477 1037.2898254 349.17320397 1030.43516066 348.21209717 1023.55360413 C345.25735918 1002.4651303 341.78873445 981.46378385 338.16531372 960.48113632 C337.80515508 958.39495531 337.4457333 956.30864831 337.08642578 954.22232056 C332.95268859 930.23301387 328.65004277 906.2777541 324.18310547 882.34814453 C323.12612381 876.68362466 322.07784557 871.0175207 321.03108215 865.35110474 C316.02007275 838.23108195 310.9028191 811.13586706 305.55664062 784.07983398 C303.16424333 771.96897225 300.82307987 759.85027782 298.53936768 747.71847534 C290.08814816 702.86362507 280.75371579 658.19746794 270.375 613.75 C270.14466064 612.76307159 269.91432129 611.77614319 269.67700195 610.75930786 C263.78550042 585.37711621 263.78550042 585.37711621 256.84538269 560.26890564 C254.47450505 552.34382894 252.45942563 544.33230531 250.4375 536.3125 C248.08383019 526.99847447 245.68213986 517.71490118 243.00708008 508.48657227 C241.93192816 504.76433117 240.88811451 501.03389589 239.8515625 497.30078125 C234.67071156 478.68690518 234.67071156 478.68690518 228.97070312 460.2265625 C226.71009336 453.21931628 224.81319785 446.13546685 223 439 C221.35 438.67 219.7 438.34 218 438 C217.67 438.66 217.34 439.32 217 440 C216.34 437.03 215.68 434.06 215 431 C1.49 431 -212.02 431 -432 431 C-436.5632941 447.66546879 -436.5632941 447.66546879 -440.9375 464.375 C-443.21575214 473.22078273 -445.72593873 481.98131731 -448.32397461 490.73779297 C-450.54494384 498.28628855 -452.55694022 505.87563786 -454.5 513.5 C-456.95432381 523.13050843 -459.61167643 532.67568652 -462.4387207 542.20288086 C-465.30751749 551.9221735 -467.84934856 561.71770495 -470.36523438 571.53320312 C-471.20525881 574.79766731 -472.06805304 578.05575799 -472.9375 581.3125 C-473.24816406 582.47652344 -473.55882812 583.64054688 -473.87890625 584.83984375 C-474.77243967 588.16815085 -475.68067442 591.4923388 -476.58984375 594.81640625 C-487.14565852 633.51518135 -495.52994085 672.77065076 -503.92407227 711.9855957 C-504.72882594 715.74317449 -505.54108602 719.4990825 -506.35522461 723.25463867 C-510.13691082 740.74085759 -513.70139144 758.26520287 -517.1875 775.8125 C-517.71248235 778.44864913 -518.23806307 781.08467884 -518.76367188 783.72070312 C-519.75407735 788.68922552 -520.74332938 793.65797491 -521.73144531 798.62695312 C-522.73150057 803.65462568 -523.73713634 808.68113856 -524.74609375 813.70703125 C-525.82380003 819.09009803 -526.86224166 824.47938493 -527.875 829.875 C-529.15242924 836.64975833 -530.48332998 843.41119592 -531.85986328 850.16650391 C-533.93316117 860.35586952 -535.80202763 870.55076504 -537.45300293 880.81686401 C-538.56147427 887.61208314 -539.85402047 894.34868552 -541.25 901.08984375 C-544.36825842 916.43651638 -546.99015656 931.8637773 -549.61462402 947.30072021 C-550.12526426 950.29767862 -550.64022208 953.29388834 -551.15513897 956.2901144 C-555.55298763 981.89523042 -559.94800429 1007.53089132 -563.1875 1033.3125 C-564.12779403 1040.72681845 -565.13993317 1048.0880827 -566.5246582 1055.43334961 C-567.27476174 1059.48360048 -567.89131324 1063.55148091 -568.5 1067.625 C-568.61730469 1068.38683594 -568.73460937 1069.14867187 -568.85546875 1069.93359375 C-569.66259449 1075.30575323 -570.32673361 1080.68964399 -570.94921875 1086.0859375 C-571.86153979 1093.98951474 -572.91117742 1101.86901306 -574.00201416 1109.74966431 C-578.3727422 1141.42777668 -582.26840926 1173.13597704 -585 1205 C-585.33 1205 -585.66 1205 -586 1205 C-586.2595195 1203.82967224 -586.519039 1202.65934448 -586.78642273 1201.45355225 C-587.83294613 1197.28589777 -589.45672788 1193.5562716 -591.41723633 1189.74316406 C-591.75752869 1189.06520782 -592.09782104 1188.38725159 -592.44842529 1187.68875122 C-593.56895998 1185.46059249 -594.70058432 1183.2382594 -595.83203125 1181.015625 C-596.62840758 1179.4354557 -597.42393837 1177.85486001 -598.21867371 1176.27386475 C-600.3161247 1172.10551828 -602.42239443 1167.94169913 -604.53137207 1163.7791748 C-608.26678657 1156.40480101 -611.99062189 1149.02459311 -615.70703125 1141.640625 C-616.10967634 1140.84107391 -616.51232143 1140.04152283 -616.92716789 1139.21774292 C-623.81030944 1125.53412062 -630.36408523 1111.72952908 -636.72073364 1097.79333496 C-638.44655676 1094.02492346 -640.21138823 1090.27578782 -641.98828125 1086.53125 C-650.61603734 1068.29165013 -658.90021683 1049.91608848 -667.03564453 1031.45214844 C-668.93020712 1027.15422126 -670.83725386 1022.86191288 -672.74609375 1018.5703125 C-679.45384199 1003.47394912 -686.03701458 988.32782184 -692.5 973.125 C-692.81742157 972.37899536 -693.13484314 971.63299072 -693.46188354 970.86437988 C-695.99044623 964.91623328 -698.49718458 958.95901892 -701 953 C-701.52281806 951.75721439 -702.04565652 950.51443736 -702.56851196 949.27166748 C-712.51170335 925.62407628 -722.13544138 901.85655176 -731.63079834 878.02600098 C-733.42050452 873.53607444 -735.21332786 869.04739288 -737.00585938 864.55859375 C-739.02233096 859.50835336 -741.03849077 854.45798974 -743.05265808 849.40682983 C-743.3542172 848.65190561 -743.65577631 847.89698139 -743.96647358 847.11918068 C-744.54386898 845.66810636 -745.1174519 844.21550799 -745.68682384 842.76126671 C-746.84812411 839.80550716 -748.03564943 836.92625055 -749.41885376 834.0647583 C-751.47131608 829.7537663 -752.40768374 826.98747609 -751.11376953 822.30297852 C-750.44264974 820.52234234 -749.73410655 818.75560661 -749 817 C-748.5861908 815.91411591 -748.17238159 814.82823181 -747.74603271 813.70944214 C-746.26338249 809.84037548 -744.726794 805.99592078 -743.1796875 802.15234375 C-742.60219928 800.70888834 -742.02503808 799.26530205 -741.44818115 797.82159424 C-739.91311374 793.98352298 -738.37228948 790.14778955 -736.82984161 786.31267929 C-735.87126896 783.92821899 -734.91423745 781.54314588 -733.95770264 779.15786743 C-724.14807418 754.69813261 -714.23195109 730.28659292 -704 706 C-703.40049191 704.57440736 -702.80104502 703.14878899 -702.20166016 701.72314453 C-698.46249461 692.83551646 -694.69288277 683.96115629 -690.89788818 675.097229 C-690.28987531 673.67707196 -689.68217792 672.25677981 -689.07476807 670.83636475 C-679.03410124 647.35834048 -668.69875312 624.02261086 -658.15771484 600.76513672 C-656.42876155 596.94956568 -654.70667119 593.13095618 -652.98762512 589.31091309 C-645.11206215 571.81424112 -636.97149087 554.47147996 -628.56542969 537.22363281 C-626.73481308 533.45391015 -624.92935023 529.67273192 -623.12963867 525.88818359 C-617.8971313 514.88556155 -612.58574343 503.92105883 -607.25714111 492.96472168 C-606.39455967 491.19024792 -605.53298511 489.41528426 -604.67254639 487.63977051 C-599.42350378 476.81237814 -594.00541701 466.0979582 -588.36401367 455.46972656 C-586.19908239 451.38901831 -584.07922126 447.28694251 -581.98046875 443.171875 C-575.39763323 430.283624 -568.71800592 417.49960311 -561.51464844 404.94287109 C-558.19426302 399.14824962 -555.01154418 393.30373383 -551.9375 387.375 C-546.58164879 377.080497 -540.83133849 367.03127121 -535 357 C-534.36674805 355.90896973 -533.73349609 354.81793945 -533.08105469 353.69384766 C-490.35177392 280.13214208 -443.67969057 208.54559647 -388.43701172 143.69140625 C-387.00600998 142.00707393 -385.58262965 140.3165372 -384.16015625 138.625 C-376.97626926 130.11850051 -369.44351139 121.9875248 -361.79003906 113.90332031 C-359.61770673 111.5935136 -357.47665376 109.25652885 -355.33886719 106.91479492 C-346.91430166 97.69357685 -338.27998883 88.61821298 -328.74609375 80.53125 C-326.966369 78.97050705 -325.3316798 77.32720968 -323.6875 75.625 C-319.96400018 71.83364597 -315.87181535 68.56500693 -311.734375 65.23828125 C-309.37330922 63.30558026 -307.11882708 61.3155385 -304.875 59.25 C-297.96082551 53.0395897 -290.4285221 47.57223153 -283 42 C-282.35192383 41.51063965 -281.70384766 41.0212793 -281.03613281 40.51708984 C-261.92921642 26.10965758 -241.58646443 13.3324043 -220.00488281 2.96777344 C-217.99271888 1.99648535 -215.99235856 1.0035266 -213.9921875 0.0078125 C-145.80374352 -33.53163392 -68.36016458 -32.28526896 0 0 Z " fill="#B6D7FE" transform="translate(1107,307)"/>
<path d="M0 0 C0.33 0 0.66 0 1 0 C1.0501123 1.05461426 1.10022461 2.10922852 1.15185547 3.19580078 C1.34660606 7.27797172 1.54516611 11.35995137 1.74462891 15.44189453 C1.8289309 17.17687378 1.91232621 18.91189742 1.99462891 20.64697266 C2.5217622 31.74280313 3.17576197 42.8240005 3.9375 53.90625 C5.14377157 71.53648236 6.06937832 89.18009924 6.99157715 106.8270874 C7.2181078 111.15303526 7.44706631 115.47885467 7.67578125 119.8046875 C8.11947709 128.20300559 8.56062292 136.60145486 9 145 C11.31 145.33 13.62 145.66 16 146 C16.33 148.31 16.66 150.62 17 153 C125.57 153.33 234.14 153.66 346 154 C340.37283026 164.12890554 340.37283026 164.12890554 337.72265625 167.98828125 C336.839729 169.27943848 336.839729 169.27943848 335.93896484 170.59667969 C335.31973145 171.49290039 334.70049805 172.38912109 334.0625 173.3125 C333.40717285 174.26672852 332.7518457 175.22095703 332.07666016 176.20410156 C330.05680169 179.1400495 328.02991039 182.07099461 326 185 C325.38850098 185.88284668 324.77700195 186.76569336 324.14697266 187.67529297 C310.87940395 206.79758951 297.21769105 225.57191976 283 244 C282.48695313 244.66515625 281.97390625 245.3303125 281.4453125 246.015625 C267.51024783 264.03112298 252.93883543 281.60121553 237.46484375 298.31640625 C235.35183852 300.6169365 233.28894966 302.94659183 231.25 305.3125 C228.54106672 308.44067296 225.67337258 311.34725815 222.72265625 314.24609375 C221.04036927 315.9588984 219.48896241 317.73107445 217.9375 319.5625 C210.70455357 327.94093568 202.69397193 335.89313318 194.2421875 343.0390625 C191.65457145 345.30209953 189.16156552 347.65288904 186.66186523 350.01220703 C179.98886313 356.30811479 173.19249708 362.29730684 166 368 C164.87260041 368.91792451 163.74636466 369.8372797 162.62109375 370.7578125 C137.55325739 391.18158055 110.33676687 409.29117065 81 423 C80.17081055 423.3904248 79.34162109 423.78084961 78.48730469 424.18310547 C32.81180741 445.47450491 -17.07863197 454.07251544 -67 446 C-67.69270996 445.89316895 -68.38541992 445.78633789 -69.09912109 445.67626953 C-95.47856138 441.50677067 -121.56125844 431.5011436 -145.06445312 419.00976562 C-147.07247506 417.96219011 -149.1018976 416.97073433 -151.140625 415.984375 C-182.58622003 400.48641297 -212.00471111 377.91101256 -237.64453125 354.171875 C-239.81154967 352.17376183 -242.01642518 350.23550156 -244.25 348.3125 C-247.39586901 345.58224376 -250.32427746 342.69681174 -253.2421875 339.7265625 C-254.97663348 338.02295112 -256.77238547 336.44855962 -258.625 334.875 C-266.80615158 327.8101849 -274.46589234 319.99335828 -281.4609375 311.7578125 C-283.0694055 309.92072976 -284.75838868 308.21092213 -286.5 306.5 C-289.53594925 303.51127663 -292.34508659 300.38293521 -295.125 297.15625 C-297.17359094 294.80037042 -299.27203002 292.4949254 -301.375 290.1875 C-305.27363397 285.86739209 -308.97503858 281.41928619 -312.6328125 276.89453125 C-314.68377296 274.38667365 -316.77396803 271.91938564 -318.88647461 269.46337891 C-324.73015576 262.65603968 -330.19965577 255.60525308 -335.61328125 248.453125 C-338.44993684 244.70824558 -341.33574164 241.00471163 -344.23706055 237.30981445 C-351.75725959 227.72340922 -358.95059491 217.93644626 -366 208 C-366.77899658 206.90872803 -366.77899658 206.90872803 -367.57373047 205.79541016 C-375.90066798 194.12018351 -383.91090646 182.2367 -391.875 170.3125 C-392.37756317 169.56128876 -392.88012634 168.81007751 -393.3979187 168.03610229 C-394.82789018 165.89695677 -396.25442415 163.75556575 -397.6796875 161.61328125 C-398.11647324 160.96007904 -398.55325897 160.30687683 -399.00328064 159.63388062 C-402 155.11529707 -402 155.11529707 -402 154 C-296.73 154 -191.46 154 -83 154 C-80.87631579 112.47314073 -80.87631579 112.47314073 -78.9375 70.9375 C-78.34348922 57.55740709 -77.61933376 44.24123424 -76.46484375 30.8984375 C-75.83781407 22.94201043 -75.44271157 14.96880822 -75 7 C-50.25 7 -25.5 7 0 7 C0 4.69 0 2.38 0 0 Z " fill="#B5D7FE" transform="translate(1028,1535)"/>
<path d="M0 0 C14.52 0 29.04 0 44 0 C44.18175781 4.65738281 44.36351562 9.31476563 44.55078125 14.11328125 C44.80284397 20.51309458 45.05714688 26.91281716 45.3125 33.3125 C45.34571098 34.14533005 45.37892197 34.9781601 45.41313934 35.83622742 C46.40043398 60.55448 47.52056322 85.26035489 48.82043457 109.96420288 C49.56415308 124.11291628 50.25817187 138.25071833 50.65454102 152.41381836 C51.01953063 165.00549334 51.68640896 177.58316841 52.34008789 190.16259766 C52.3834729 191.01279984 52.42685791 191.86300201 52.47155762 192.7389679 C52.55255808 194.32434802 52.63540814 195.90963532 52.72058105 197.49479675 C52.98456087 202.68456059 53 207.78703176 53 213 C31.88 213 10.76 213 -11 213 C-8.37987067 154.9641353 -8.37987067 154.9641353 -6.9453125 127.453125 C-6.87864883 126.17444833 -6.87864883 126.17444833 -6.81063843 124.8699398 C-6.37363137 116.49907143 -5.93236315 108.12843603 -5.48553467 99.7580862 C-5.27824268 95.87133819 -5.07228105 91.98452086 -4.8671875 88.09765625 C-4.82801712 87.35600534 -4.78884674 86.61435444 -4.74848938 85.85022926 C-4.17277242 74.8961813 -3.68435872 63.9413911 -3.30392456 52.97853088 C-3.13468593 48.13942215 -2.91643232 43.32559865 -2.5 38.5 C-2.15115347 34.21861425 -1.89640365 29.9532473 -1.75 25.66015625 C-1.70810547 24.49742188 -1.66621094 23.3346875 -1.62304688 22.13671875 C-1.54240964 19.79439904 -1.46545232 17.45194909 -1.39257812 15.109375 C-1.35583984 14.02269531 -1.31910156 12.93601562 -1.28125 11.81640625 C-1.23581055 10.35376343 -1.23581055 10.35376343 -1.18945312 8.86157227 C-0.99256737 5.88773476 -0.48996617 2.93979705 0 0 Z " fill="#B5D7FE" transform="translate(966,1196)"/>
<path d="M0 0 C1.65 0 3.3 0 5 0 C7.53996808 6.41877475 9.44074422 12.90474933 11.25 19.5625 C13.56781576 27.97735396 15.98388052 36.34891254 18.5625 44.6875 C21.63064486 54.650096 24.42191153 64.66797191 27.11962891 74.73632812 C28.13467697 78.49926837 29.16581753 82.25769591 30.19921875 86.015625 C37.28192054 111.79465259 37.28192054 111.79465259 40.24627686 123.977005 C41.49732013 129.08072225 42.86481159 134.13824306 44.3046875 139.19140625 C47.26429628 149.7295606 49.84027026 160.35293631 52.375 171 C52.61400024 172.00001038 52.85300049 173.00002075 53.09924316 174.03033447 C56.99126834 190.3440128 60.52034245 206.7033477 63.80831909 223.14759827 C65.18958842 230.01657185 66.72284969 236.84983927 68.25 243.6875 C75.56745324 276.73100099 81.9711806 309.98740477 88.08178711 343.27294922 C90.27545392 355.20721888 92.57323963 367.11807421 94.92440796 379.02227783 C99.09247019 400.13241583 103.03350789 421.27556459 106.82666016 442.45605469 C107.67729602 447.20468145 108.53161661 451.95263534 109.38818359 456.70019531 C114.56371769 485.38743069 119.72882618 514.07599279 124.625 542.8125 C124.78726074 543.76210602 124.94952148 544.71171204 125.11669922 545.69009399 C126.71279204 555.04788818 128.24268657 564.40328588 129.54833984 573.80688477 C130.2928496 579.0703675 131.14823414 584.3154892 132 589.5625 C133.84300484 600.95889318 135.65381205 612.35466334 137.21875 623.79296875 C137.32340576 624.55783096 137.42806152 625.32269318 137.53588867 626.11073303 C137.96680106 629.26651198 138.39673868 632.42241328 138.82275391 635.57885742 C139.88357384 643.4255445 140.94342386 651.22885358 142.58886719 658.97875977 C143.18856099 661.9270169 143.53682344 664.88662348 143.875 667.875 C144.60030827 674.04765986 145.45699654 680.19376863 146.36401367 686.34228516 C148.3665671 699.94204358 150.04680193 713.55177735 151.51708984 727.21801758 C152.33768138 734.75363657 153.30936389 742.242943 154.46875 749.734375 C156.08429217 760.21009514 157.29624149 770.71343279 158.4375 781.25 C158.65347838 783.219736 158.86954464 785.18946237 159.08569336 787.15917969 C160.92148287 803.96853501 162.63456413 820.78949943 164.27568054 837.61888123 C164.75527673 842.53120381 165.24550368 847.44230323 165.7454071 852.3526001 C167.82168675 872.75875518 169.63911656 893.17659479 171.25 913.625 C171.33894531 914.7458902 171.42789062 915.8667804 171.51953125 917.02163696 C171.77173082 920.2146847 172.01959803 923.40803381 172.265625 926.6015625 C172.34041077 927.55078079 172.41519653 928.49999908 172.49224854 929.47798157 C172.55958191 930.36777206 172.62691528 931.25756256 172.69628906 932.17431641 C172.75528381 932.94111725 172.81427856 933.70791809 172.87506104 934.49795532 C173.03330736 937.66701768 173.00740918 940.82744414 173 944 C103.86019336 944.06638554 34.7215394 943.99122847 -34.41796875 943.78125 C-35.32034942 943.77851342 -36.22273009 943.77577683 -37.15245563 943.77295732 C-60.19523092 943.70299558 -83.23799434 943.62946806 -106.28075421 943.55461788 C-119.63321168 943.51127944 -132.98567208 943.46894498 -146.33813477 943.42724609 C-147.29451531 943.4242591 -148.25089586 943.4212721 -149.23625764 943.41819459 C-154.03969714 943.40319733 -158.8431367 943.38821593 -163.64657629 943.37324238 C-202.76439213 943.25128204 -241.88219899 943.1266247 -281 943 C-281 940.69 -281 938.38 -281 936 C-133.82 936 13.36 936 165 936 C159.42304927 870.67000569 153.55147283 805.45130483 145.6875 740.375 C145.56273222 739.33981735 145.56273222 739.33981735 145.43544388 738.28372192 C143.0116786 718.13436587 143.0116786 718.13436587 139.97221375 698.07089233 C139.01105314 692.32366416 138.32496656 686.56205662 137.73579407 680.76553345 C136.43881343 668.12763863 134.52962109 655.55349021 132.671875 642.98828125 C132.56126425 642.23873358 132.4506535 641.48918591 132.3366909 640.71692467 C118.16390617 544.73826991 101.14522478 449.30508836 2.89379883 12.7043457 C2.69021255 12.03916428 2.48662628 11.37398285 2.27687073 10.68864441 C1.75335121 8.98386792 1.22321615 7.28112658 0.69238281 5.57861328 C0 3 0 3 0 0 Z " fill="#040709" transform="translate(1325,745)"/>
<path d="M0 0 C27.06 0 54.12 0 82 0 C82 2.31 82 4.62 82 7 C57.25 7 32.5 7 7 7 C7 12.94 7 18.88 7 25 C6.76273431 28.81139569 6.48650534 32.57836407 6.125 36.375 C5.13596711 47.97095073 4.56011039 59.56205303 4.0625 71.1875 C3.34029178 87.90573727 2.53448881 104.61794837 1.63742065 121.32778931 C1.50443658 123.81206013 1.3730208 126.29641542 1.24319458 128.78085327 C1.06089436 132.2616966 0.87306885 135.74219703 0.68359375 139.22265625 C0.62948334 140.27057343 0.57537292 141.3184906 0.5196228 142.39816284 C0.46601593 143.35868561 0.41240906 144.31920837 0.35717773 145.30883789 C0.31213608 146.14653214 0.26709442 146.98422638 0.22068787 147.8473053 C0 150 0 150 -1 153 C-39.89370655 153.12953343 -78.78741921 153.2570712 -117.68114025 153.38218227 C-122.34618339 153.3971901 -127.01122647 153.41221332 -131.67626953 153.42724609 C-133.0684834 153.43173202 -133.0684834 153.43173202 -134.4888228 153.43630856 C-147.41610299 153.47799386 -160.34338024 153.52050003 -173.27065548 153.56369197 C-195.59970125 153.6382957 -217.92875186 153.71122653 -240.2578125 153.78125 C-241.56742484 153.78536243 -241.56742484 153.78536243 -242.903494 153.78955793 C-305.60252218 153.98612934 -368.30063992 154.0690956 -431 154 C-431 151.36 -431 148.72 -431 146 C-291.74 145.67 -152.48 145.34 -9 145 C-8.34 130.81 -7.68 116.62 -7 102 C-6.00390625 87.6640625 -6.00390625 87.6640625 -5.50439453 81.08691406 C-4.87708135 72.59295639 -4.42161513 64.09042743 -3.96484375 55.5859375 C-3.92235126 54.79897743 -3.87985878 54.01201736 -3.83607864 53.20121002 C-3.443497 45.9259296 -3.05696718 38.6503337 -2.67456055 31.37451172 C-2.46200371 27.33499583 -2.2451928 23.29572654 -2.02572823 19.25658035 C-1.94391471 17.73439032 -1.86378112 16.212109 -1.78538322 14.68973923 C-1.67723536 12.5902872 -1.56372669 10.4911897 -1.44897461 8.39208984 C-1.38616806 7.20191254 -1.32336151 6.01173523 -1.25865173 4.78549194 C-1 2 -1 2 0 0 Z " fill="#020305" transform="translate(946,1535)"/>
<path d="M0 0 C14.19 0 28.38 0 43 0 C43 2.64 43 5.28 43 8 C31.45 8 19.9 8 8 8 C8 11.3 8 14.6 8 18 C7.92589324 20.01760357 7.83288662 22.03469759 7.7121582 24.05004883 C7.64802231 25.14859192 7.58388641 26.24713501 7.51780701 27.37896729 C7.44618851 28.55972839 7.37457001 29.7404895 7.30078125 30.95703125 C7.18504133 32.9390319 7.06931274 34.92103323 6.95393848 36.90305519 C6.82886146 39.04619051 6.70260941 41.18925406 6.57611084 43.33230591 C5.16080482 67.34589633 3.86029343 91.36374469 2.69140625 115.390625 C2.63660158 116.51451315 2.58179691 117.6384013 2.5253315 118.79634666 C1.97779704 130.03074245 1.43536632 141.26535976 0.90512371 152.50058556 C0.70387192 156.74618165 0.49889856 160.99159336 0.29321098 165.23697662 C0.19893456 167.20159968 0.10632622 169.16630373 0.01564217 171.13109589 C-0.61544621 184.79584711 -1.65554172 198.38672607 -3 212 C-5.64 212 -8.28 212 -11 212 C-10.39786451 199.37490248 -9.79336085 186.74991926 -9.1875 174.125 C-9.14241177 173.18500782 -9.09732353 172.24501564 -9.05086899 171.27653885 C-7.12649497 131.16741663 -7.12649497 131.16741663 -6.1015625 111.48828125 C-6.03340836 110.17962097 -5.96525421 108.87096069 -5.89503479 107.52264404 C-5.5844173 101.58211112 -5.27018205 95.64178735 -4.9519043 89.70166016 C-4.31082537 77.64398813 -3.7595408 65.58748051 -3.33259583 53.52012634 C-3.15216629 48.50111416 -2.93427419 43.50483206 -2.5 38.5 C-2.15115347 34.21861425 -1.89640365 29.9532473 -1.75 25.66015625 C-1.70810547 24.49742188 -1.66621094 23.3346875 -1.62304688 22.13671875 C-1.54240964 19.79439904 -1.46545232 17.45194909 -1.39257812 15.109375 C-1.35583984 14.02269531 -1.31910156 12.93601562 -1.28125 11.81640625 C-1.23581055 10.35376343 -1.23581055 10.35376343 -1.18945312 8.86157227 C-0.99256737 5.88773476 -0.48996617 2.93979705 0 0 Z " fill="#050607" transform="translate(966,1196)"/>
</svg>
